<?xml version="1.0" encoding="UTF-8"?>
<svg version="1.1" xmlns="http://www.w3.org/2000/svg" width="172" height="174">
<path d="M0 0 C56.76 0 113.52 0 172 0 C172 57.42 172 114.84 172 174 C115.24 174 58.48 174 0 174 C0 116.58 0 59.16 0 0 Z " fill="#E8825C" transform="translate(0,0)"/>
<path d="M0 0 C1.67886353 1.01171875 1.67886353 1.01171875 3 3 C3.29615555 5.80293205 3.40977243 8.38374421 3.38818359 11.1875 C3.39344055 12.02192627 3.39869751 12.85635254 3.40411377 13.71606445 C3.41733049 16.47756605 3.40856986 19.23849242 3.3984375 22 C3.40045776 23.91666779 3.40336879 25.83333484 3.40713501 27.75 C3.41156063 31.76830356 3.40511965 35.78640716 3.39111328 39.8046875 C3.37402128 44.95996008 3.38386119 50.11476414 3.40183067 55.27001953 C3.41266208 59.22822613 3.40922512 63.18632133 3.4014473 67.14453125 C3.39944351 69.04557348 3.4019108 70.94662576 3.40888596 72.84765625 C3.41648987 75.5028774 3.40491136 78.15733578 3.38818359 80.8125 C3.39729263 81.99549683 3.39729263 81.99549683 3.40658569 83.20239258 C3.34463292 88.50023968 3.34463292 88.50023968 1.60464478 91.0234375 C0 92 0 92 -2.0625 91.8125 C-4 91 -4 91 -6 89 C-6.22705078 86.38623047 -6.22705078 86.38623047 -6.1953125 83.1171875 C-6.18886719 81.95058594 -6.18242188 80.78398438 -6.17578125 79.58203125 C-6.15902344 78.35871094 -6.14226562 77.13539062 -6.125 75.875 C-6.11597656 74.64394531 -6.10695313 73.41289063 -6.09765625 72.14453125 C-6.07402548 69.09616185 -6.04108054 66.04817618 -6 63 C-7.13018555 63.0304541 -7.13018555 63.0304541 -8.28320312 63.06152344 C-9.27255859 63.07731445 -10.26191406 63.09310547 -11.28125 63.109375 C-12.26158203 63.12967773 -13.24191406 63.14998047 -14.25195312 63.17089844 C-18.92636238 62.88020134 -21.44315703 60.55988002 -24.62695312 57.36987305 C-26.6015074 53.9618008 -26.46773436 50.66660711 -26.46875 46.83203125 C-26.47636353 46.03778244 -26.48397705 45.24353363 -26.49182129 44.42521667 C-26.50261325 42.74501683 -26.50547904 41.06474995 -26.50097656 39.38452148 C-26.50000963 36.83786025 -26.54152234 34.29426903 -26.5859375 31.74804688 C-26.65840387 21.97842658 -26.33122177 14.5710371 -19.2578125 7.17944336 C-13.78221175 1.9666518 -7.66582796 -0.88451861 0 0 Z " fill="#FDF7F5" transform="translate(126,40)"/>
<path d="M0 0 C5.875 0.875 5.875 0.875 7 2 C7.15988491 4.51880517 7.25934225 7.01342266 7.31640625 9.53515625 C7.33718735 10.28840683 7.35796844 11.04165741 7.37937927 11.81773376 C7.44495425 14.2325599 7.50379621 16.64749798 7.5625 19.0625 C7.6056777 20.69597529 7.64929173 22.3294391 7.69335938 23.96289062 C7.80064362 27.97514464 7.90188821 31.98751164 8 36 C10.31 36.66 12.62 37.32 15 38 C14.98952637 36.91992676 14.97905273 35.83985352 14.96826172 34.72705078 C14.93211806 30.72773541 14.90912016 26.72843454 14.89013672 22.72900391 C14.88006624 20.99655735 14.86640911 19.26412784 14.84912109 17.53173828 C14.82491838 15.04455361 14.81352761 12.55759325 14.8046875 10.0703125 C14.79436493 9.29317902 14.78404236 8.51604553 14.77340698 7.71536255 C14.77300729 5.80874507 14.8776786 3.90268964 15 2 C15.66 1.34 16.32 0.68 17 0 C21.55555556 0.55555556 21.55555556 0.55555556 23 2 C23.08855161 4.6662603 23.11524673 7.30647114 23.09765625 9.97265625 C23.0962413 10.77029892 23.09482635 11.56794159 23.09336853 12.38975525 C23.08775316 14.94737435 23.07519812 17.50490718 23.0625 20.0625 C23.05748698 21.79231645 23.05292373 23.52213426 23.04882812 25.25195312 C23.03777875 29.50133553 23.02050386 33.75065312 23 38 C27.33229715 37.1395861 27.33229715 37.1395861 31 35 C31.1351823 32.57717583 31.21046394 30.17874437 31.24609375 27.75390625 C31.27902865 26.26236384 31.31224035 24.77082753 31.34570312 23.27929688 C31.3931715 20.91792964 31.43759816 18.55658775 31.47680664 16.19506836 C31.51643872 13.92275003 31.56800177 11.65094426 31.62109375 9.37890625 C31.6295079 8.67053116 31.63792206 7.96215607 31.64659119 7.23231506 C31.77332648 2.22667352 31.77332648 2.22667352 34 0 C38.55555556 0.55555556 38.55555556 0.55555556 40 2 C40.12579108 4.45082955 40.18864456 6.8719282 40.203125 9.32421875 C40.20882507 10.06323929 40.21452515 10.80225983 40.22039795 11.56367493 C40.22986503 13.13317426 40.23638868 14.70269362 40.24023438 16.2722168 C40.24989024 18.66035448 40.28087501 21.04761326 40.3125 23.43554688 C40.31903498 24.96093239 40.3242835 26.48632407 40.328125 28.01171875 C40.3404718 28.72132248 40.3528186 29.43092621 40.36553955 30.16203308 C40.34472997 34.85651315 39.54177382 38.04919939 37 42 C33.98296676 44.75444075 31.79529353 45.42136227 27.75 45.6875 C26.85796875 45.75324219 25.9659375 45.81898437 25.046875 45.88671875 C24.03367187 45.94279297 24.03367187 45.94279297 23 46 C23.00444122 46.54679413 23.00888245 47.09358826 23.01345825 47.6569519 C23.05761356 53.33426304 23.08783379 59.01152561 23.10986328 64.68896484 C23.11993751 66.8094277 23.13359733 68.92987661 23.15087891 71.05029297 C23.17506489 74.09345943 23.18646869 77.13644266 23.1953125 80.1796875 C23.20563507 81.13181122 23.21595764 82.08393494 23.22659302 83.06491089 C23.22674408 83.94567291 23.22689514 84.82643494 23.22705078 85.73388672 C23.231492 86.51110077 23.23593323 87.28831482 23.24050903 88.08908081 C23 90 23 90 21 92 C16.44444444 91.44444444 16.44444444 91.44444444 15 90 C14.9072167 88.61839885 14.88252957 87.23211962 14.88647461 85.84741211 C14.88655014 84.96657455 14.88662567 84.085737 14.88670349 83.1782074 C14.89444542 81.74227989 14.89444542 81.74227989 14.90234375 80.27734375 C14.9037587 79.30213272 14.90517365 78.32692169 14.90663147 77.32215881 C14.91224867 74.19390857 14.92480407 71.06572877 14.9375 67.9375 C14.94251278 65.82226666 14.94707607 63.70703219 14.95117188 61.59179688 C14.96222369 56.39450704 14.97897854 51.19725855 15 46 C14.39019287 45.95391602 13.78038574 45.90783203 13.15209961 45.86035156 C12.34780518 45.7878418 11.54351074 45.71533203 10.71484375 45.640625 C9.91941162 45.57391602 9.12397949 45.50720703 8.30444336 45.43847656 C4.38449861 44.69261145 2.70423537 42.90210625 0 40 C-2.19001747 35.82164043 -2.26375983 31.90822176 -2.1953125 27.29296875 C-2.1924826 26.56757401 -2.18965271 25.84217926 -2.18673706 25.09480286 C-2.17559799 22.79219632 -2.15050566 20.48998773 -2.125 18.1875 C-2.11496206 16.62044835 -2.10583763 15.05339057 -2.09765625 13.48632812 C-2.0756793 9.65740022 -2.04119339 5.82876744 -2 2 C-1.34 2 -0.68 2 0 2 C0 1.34 0 0.68 0 0 Z " fill="#FEFBFB" transform="translate(47,40)"/>
<path d="M0 0 C0 14.52 0 29.04 0 44 C-3.63 44 -7.26 44 -11 44 C-13.23395134 39.53209732 -12.268581 33.47443513 -12.29516602 28.50683594 C-12.31232983 26.27215531 -12.35620843 24.03897379 -12.40039062 21.8046875 C-12.41052243 20.37501085 -12.41903701 18.94532164 -12.42578125 17.515625 C-12.44765503 15.57091309 -12.44765503 15.57091309 -12.4699707 13.58691406 C-11.76913044 8.23795556 -9.3218865 5.2251631 -5.4375 1.625 C-3 0 -3 0 0 0 Z " fill="#E8825C" transform="translate(120,50)"/>
</svg>
